<svg width="148" height="184" viewBox="0 0 148 184" fill="none" xmlns="http://www.w3.org/2000/svg">
<path d="M17.5518 0C16.9244 0 16.311 0.186049 15.7893 0.534633C15.2676 0.883217 14.8609 1.37866 14.6208 1.95833C14.3807 2.538 14.3179 3.17588 14.4403 3.79126C14.5627 4.40663 14.8649 4.97189 15.3085 5.41555C15.7522 5.85921 16.3174 6.16136 16.9328 6.28377C17.5482 6.40617 18.1862 6.34335 18.7658 6.10324C19.3455 5.86314 19.8409 5.4565 20.1895 4.93481C20.5381 4.41312 20.7242 3.7998 20.7242 3.17236C20.7242 2.331 20.39 1.52408 19.7951 0.929145C19.2001 0.334212 18.3932 0 17.5518 0Z" fill="#313131"/>
<path d="M17.5518 25.3793C16.9244 25.3793 16.311 25.5654 15.7893 25.914C15.2676 26.2626 14.8609 26.758 14.6208 27.3377C14.3807 27.9173 14.3179 28.5552 14.4403 29.1706C14.5627 29.786 14.8649 30.3512 15.3085 30.7949C15.7522 31.2385 16.3174 31.5407 16.9328 31.6631C17.5482 31.7855 18.1862 31.7227 18.7658 31.4826C19.3455 31.2425 19.8409 30.8358 20.1895 30.3141C20.5381 29.7925 20.7242 29.1791 20.7242 28.5517C20.7242 27.7103 20.39 26.9034 19.7951 26.3085C19.2001 25.7135 18.3932 25.3793 17.5518 25.3793Z" fill="#313131"/>
<path d="M17.5518 50.7586C16.9244 50.7586 16.311 50.9447 15.7893 51.2933C15.2676 51.6419 14.8609 52.1373 14.6208 52.717C14.3807 53.2967 14.3179 53.9346 14.4403 54.55C14.5627 55.1654 14.8649 55.7307 15.3085 56.1744C15.7522 56.618 16.3174 56.9202 16.9328 57.0426C17.5482 57.165 18.1862 57.1022 18.7658 56.8621C19.3455 56.622 19.8409 56.2153 20.1895 55.6936C20.5381 55.1719 20.7242 54.5586 20.7242 53.9311C20.7242 53.0897 20.39 52.2827 19.7951 51.6878C19.2001 51.0928 18.3932 50.7586 17.5518 50.7586Z" fill="#313131"/>
<path d="M17.5518 76.1379C16.9244 76.1379 16.311 76.324 15.7893 76.6726C15.2676 77.0212 14.8609 77.5166 14.6208 78.0963C14.3807 78.6759 14.3179 79.3138 14.4403 79.9292C14.5627 80.5446 14.8649 81.1098 15.3085 81.5535C15.7522 81.9972 16.3174 82.2993 16.9328 82.4217C17.5482 82.5441 18.1862 82.4813 18.7658 82.2412C19.3455 82.0011 19.8409 81.5944 20.1895 81.0727C20.5381 80.5511 20.7242 79.9377 20.7242 79.3103C20.7242 78.4689 20.39 77.662 19.7951 77.0671C19.2001 76.4722 18.3932 76.1379 17.5518 76.1379Z" fill="#313131"/>
<path d="M17.5518 101.517C16.9244 101.517 16.311 101.703 15.7893 102.052C15.2676 102.4 14.8609 102.896 14.6208 103.476C14.3807 104.055 14.3179 104.693 14.4403 105.308C14.5627 105.924 14.8649 106.489 15.3085 106.933C15.7522 107.376 16.3174 107.679 16.9328 107.801C17.5482 107.923 18.1862 107.861 18.7658 107.62C19.3455 107.38 19.8409 106.974 20.1895 106.452C20.5381 105.93 20.7242 105.317 20.7242 104.69C20.7242 103.848 20.39 103.041 19.7951 102.446C19.2001 101.851 18.3932 101.517 17.5518 101.517Z" fill="#313131"/>
<path d="M17.5518 126.897C16.9244 126.897 16.311 127.083 15.7893 127.431C15.2676 127.78 14.8609 128.275 14.6208 128.855C14.3807 129.435 14.3179 130.073 14.4403 130.688C14.5627 131.303 14.8649 131.869 15.3085 132.312C15.7522 132.756 16.3174 133.058 16.9328 133.181C17.5482 133.303 18.1862 133.24 18.7658 133C19.3455 132.76 19.8409 132.353 20.1895 131.832C20.5381 131.31 20.7242 130.696 20.7242 130.069C20.7242 129.228 20.39 128.421 19.7951 127.826C19.2001 127.231 18.3932 126.897 17.5518 126.897Z" fill="#313131"/>
<path d="M17.5518 152.276C16.9244 152.276 16.311 152.462 15.7893 152.811C15.2676 153.159 14.8609 153.655 14.6208 154.234C14.3807 154.814 14.3179 155.452 14.4403 156.067C14.5627 156.683 14.8649 157.248 15.3085 157.691C15.7522 158.135 16.3174 158.437 16.9328 158.56C17.5482 158.682 18.1862 158.619 18.7658 158.379C19.3455 158.139 19.8409 157.732 20.1895 157.211C20.5381 156.689 20.7242 156.076 20.7242 155.448C20.7242 154.607 20.39 153.8 19.7951 153.205C19.2001 152.61 18.3932 152.276 17.5518 152.276Z" fill="#313131"/>
<path d="M17.5518 177.655C16.9244 177.655 16.311 177.841 15.7893 178.19C15.2676 178.538 14.8609 179.034 14.6208 179.614C14.3807 180.193 14.3179 180.831 14.4403 181.447C14.5627 182.062 14.8649 182.627 15.3085 183.071C15.7522 183.514 16.3174 183.817 16.9328 183.939C17.5482 184.061 18.1862 183.999 18.7658 183.759C19.3455 183.518 19.8409 183.112 20.1895 182.59C20.5381 182.068 20.7242 181.455 20.7242 180.828C20.7242 179.986 20.39 179.179 19.7951 178.584C19.2001 177.989 18.3932 177.655 17.5518 177.655Z" fill="#313131"/>
<path d="M42.9311 0C42.3036 0 41.6902 0.186049 41.1685 0.534633C40.6468 0.883217 40.2402 1.37866 40 1.95833C39.7599 2.538 39.6972 3.17588 39.8196 3.79126C39.942 4.40663 40.2441 4.97189 40.6878 5.41555C41.1315 5.85921 41.6967 6.16136 42.3121 6.28377C42.9275 6.40617 43.5654 6.34335 44.1451 6.10324C44.7248 5.86314 45.2202 5.4565 45.5688 4.93481C45.9174 4.41312 46.1035 3.7998 46.1035 3.17236C46.1035 2.331 45.7693 1.52408 45.1743 0.929145C44.5794 0.334212 43.7724 0 42.9311 0Z" fill="#313131"/>
<path d="M42.9311 25.3793C42.3036 25.3793 41.6902 25.5654 41.1685 25.914C40.6468 26.2626 40.2402 26.758 40 27.3377C39.7599 27.9173 39.6972 28.5552 39.8196 29.1706C39.942 29.786 40.2441 30.3512 40.6878 30.7949C41.1315 31.2385 41.6967 31.5407 42.3121 31.6631C42.9275 31.7855 43.5654 31.7227 44.1451 31.4826C44.7248 31.2425 45.2202 30.8358 45.5688 30.3141C45.9174 29.7925 46.1035 29.1791 46.1035 28.5517C46.1035 27.7103 45.7693 26.9034 45.1743 26.3085C44.5794 25.7135 43.7724 25.3793 42.9311 25.3793Z" fill="#313131"/>
<path d="M42.9311 50.7586C42.3036 50.7586 41.6902 50.9447 41.1685 51.2933C40.6468 51.6419 40.2402 52.1373 40 52.717C39.7599 53.2967 39.6972 53.9346 39.8196 54.55C39.942 55.1654 40.2441 55.7307 40.6878 56.1744C41.1315 56.618 41.6967 56.9202 42.3121 57.0426C42.9275 57.165 43.5654 57.1022 44.1451 56.8621C44.7248 56.622 45.2202 56.2153 45.5688 55.6936C45.9174 55.1719 46.1035 54.5586 46.1035 53.9311C46.1035 53.0897 45.7693 52.2827 45.1743 51.6878C44.5794 51.0928 43.7724 50.7586 42.9311 50.7586Z" fill="#313131"/>
<path d="M42.9311 76.1379C42.3036 76.1379 41.6902 76.324 41.1685 76.6726C40.6468 77.0212 40.2402 77.5166 40 78.0963C39.7599 78.6759 39.6972 79.3138 39.8196 79.9292C39.942 80.5446 40.2441 81.1098 40.6878 81.5535C41.1315 81.9972 41.6967 82.2993 42.3121 82.4217C42.9275 82.5441 43.5654 82.4813 44.1451 82.2412C44.7248 82.0011 45.2202 81.5944 45.5688 81.0727C45.9174 80.5511 46.1035 79.9377 46.1035 79.3103C46.1035 78.4689 45.7693 77.662 45.1743 77.0671C44.5794 76.4722 43.7724 76.1379 42.9311 76.1379Z" fill="#313131"/>
<path d="M42.9311 101.517C42.3036 101.517 41.6902 101.703 41.1685 102.052C40.6468 102.4 40.2402 102.896 40 103.476C39.7599 104.055 39.6972 104.693 39.8196 105.308C39.942 105.924 40.2441 106.489 40.6878 106.933C41.1315 107.376 41.6967 107.679 42.3121 107.801C42.9275 107.923 43.5654 107.861 44.1451 107.62C44.7248 107.38 45.2202 106.974 45.5688 106.452C45.9174 105.93 46.1035 105.317 46.1035 104.69C46.1035 103.848 45.7693 103.041 45.1743 102.446C44.5794 101.851 43.7724 101.517 42.9311 101.517Z" fill="#313131"/>
<path d="M42.9311 126.897C42.3036 126.897 41.6902 127.083 41.1685 127.431C40.6468 127.78 40.2402 128.275 40 128.855C39.7599 129.435 39.6972 130.073 39.8196 130.688C39.942 131.303 40.2441 131.869 40.6878 132.312C41.1315 132.756 41.6967 133.058 42.3121 133.181C42.9275 133.303 43.5654 133.24 44.1451 133C44.7248 132.76 45.2202 132.353 45.5688 131.832C45.9174 131.31 46.1035 130.696 46.1035 130.069C46.1035 129.228 45.7693 128.421 45.1743 127.826C44.5794 127.231 43.7724 126.897 42.9311 126.897Z" fill="#313131"/>
<path d="M42.9311 152.276C42.3036 152.276 41.6902 152.462 41.1685 152.811C40.6468 153.159 40.2402 153.655 40 154.234C39.7599 154.814 39.6972 155.452 39.8196 156.067C39.942 156.683 40.2441 157.248 40.6878 157.691C41.1315 158.135 41.6967 158.437 42.3121 158.56C42.9275 158.682 43.5654 158.619 44.1451 158.379C44.7248 158.139 45.2202 157.732 45.5688 157.211C45.9174 156.689 46.1035 156.076 46.1035 155.448C46.1035 154.607 45.7693 153.8 45.1743 153.205C44.5794 152.61 43.7724 152.276 42.9311 152.276Z" fill="#313131"/>
<path d="M42.9311 177.655C42.3036 177.655 41.6902 177.841 41.1685 178.19C40.6468 178.538 40.2402 179.034 40 179.614C39.7599 180.193 39.6972 180.831 39.8196 181.447C39.942 182.062 40.2441 182.627 40.6878 183.071C41.1315 183.514 41.6967 183.817 42.3121 183.939C42.9275 184.061 43.5654 183.999 44.1451 183.759C44.7248 183.518 45.2202 183.112 45.5688 182.59C45.9174 182.068 46.1035 181.455 46.1035 180.828C46.1035 179.986 45.7693 179.179 45.1743 178.584C44.5794 177.989 43.7724 177.655 42.9311 177.655Z" fill="#313131"/>
<path d="M68.3104 0C67.683 0 67.0696 0.186049 66.5479 0.534633C66.0262 0.883217 65.6195 1.37866 65.3794 1.95833C65.1393 2.538 65.0765 3.17588 65.1989 3.79126C65.3213 4.40663 65.6235 4.97189 66.0671 5.41555C66.5108 5.85921 67.076 6.16136 67.6914 6.28377C68.3068 6.40617 68.9448 6.34335 69.5245 6.10324C70.1041 5.86314 70.5996 5.4565 70.9481 4.93481C71.2967 4.41312 71.4828 3.7998 71.4828 3.17236C71.4828 2.331 71.1486 1.52408 70.5537 0.929145C69.9587 0.334212 69.1518 0 68.3104 0Z" fill="#313131"/>
<path d="M68.3104 25.3793C67.683 25.3793 67.0696 25.5654 66.5479 25.914C66.0262 26.2626 65.6195 26.758 65.3794 27.3377C65.1393 27.9173 65.0765 28.5552 65.1989 29.1706C65.3213 29.786 65.6235 30.3512 66.0671 30.7949C66.5108 31.2385 67.076 31.5407 67.6914 31.6631C68.3068 31.7855 68.9448 31.7227 69.5245 31.4826C70.1041 31.2425 70.5996 30.8358 70.9481 30.3141C71.2967 29.7925 71.4828 29.1791 71.4828 28.5517C71.4828 27.7103 71.1486 26.9034 70.5537 26.3085C69.9587 25.7135 69.1518 25.3793 68.3104 25.3793Z" fill="#313131"/>
<path d="M68.3104 50.7586C67.683 50.7586 67.0696 50.9447 66.5479 51.2933C66.0262 51.6419 65.6195 52.1373 65.3794 52.717C65.1393 53.2967 65.0765 53.9346 65.1989 54.55C65.3213 55.1654 65.6235 55.7307 66.0671 56.1744C66.5108 56.618 67.076 56.9202 67.6914 57.0426C68.3068 57.165 68.9448 57.1022 69.5245 56.8621C70.1041 56.622 70.5996 56.2153 70.9481 55.6936C71.2967 55.1719 71.4828 54.5586 71.4828 53.9311C71.4828 53.0897 71.1486 52.2827 70.5537 51.6878C69.9587 51.0928 69.1518 50.7586 68.3104 50.7586Z" fill="#313131"/>
<path d="M68.3104 76.1379C67.683 76.1379 67.0696 76.324 66.5479 76.6726C66.0262 77.0212 65.6195 77.5166 65.3794 78.0963C65.1393 78.6759 65.0765 79.3138 65.1989 79.9292C65.3213 80.5446 65.6235 81.1098 66.0671 81.5535C66.5108 81.9972 67.076 82.2993 67.6914 82.4217C68.3068 82.5441 68.9448 82.4813 69.5245 82.2412C70.1041 82.0011 70.5996 81.5944 70.9481 81.0727C71.2967 80.5511 71.4828 79.9377 71.4828 79.3103C71.4828 78.4689 71.1486 77.662 70.5537 77.0671C69.9587 76.4722 69.1518 76.1379 68.3104 76.1379Z" fill="#313131"/>
<path d="M68.3104 101.517C67.683 101.517 67.0696 101.703 66.5479 102.052C66.0262 102.4 65.6195 102.896 65.3794 103.476C65.1393 104.055 65.0765 104.693 65.1989 105.308C65.3213 105.924 65.6235 106.489 66.0671 106.933C66.5108 107.376 67.076 107.679 67.6914 107.801C68.3068 107.923 68.9448 107.861 69.5245 107.62C70.1041 107.38 70.5996 106.974 70.9481 106.452C71.2967 105.93 71.4828 105.317 71.4828 104.69C71.4828 103.848 71.1486 103.041 70.5537 102.446C69.9587 101.851 69.1518 101.517 68.3104 101.517Z" fill="#313131"/>
<path d="M68.3104 126.897C67.683 126.897 67.0696 127.083 66.5479 127.431C66.0262 127.78 65.6195 128.275 65.3794 128.855C65.1393 129.435 65.0765 130.073 65.1989 130.688C65.3213 131.303 65.6235 131.869 66.0671 132.312C66.5108 132.756 67.076 133.058 67.6914 133.181C68.3068 133.303 68.9448 133.24 69.5245 133C70.1041 132.76 70.5996 132.353 70.9481 131.832C71.2967 131.31 71.4828 130.696 71.4828 130.069C71.4828 129.228 71.1486 128.421 70.5537 127.826C69.9587 127.231 69.1518 126.897 68.3104 126.897Z" fill="#313131"/>
<path d="M68.3104 152.276C67.683 152.276 67.0696 152.462 66.5479 152.811C66.0262 153.159 65.6195 153.655 65.3794 154.234C65.1393 154.814 65.0765 155.452 65.1989 156.067C65.3213 156.683 65.6235 157.248 66.0671 157.691C66.5108 158.135 67.076 158.437 67.6914 158.56C68.3068 158.682 68.9448 158.619 69.5245 158.379C70.1041 158.139 70.5996 157.732 70.9481 157.211C71.2967 156.689 71.4828 156.076 71.4828 155.448C71.4828 154.607 71.1486 153.8 70.5537 153.205C69.9587 152.61 69.1518 152.276 68.3104 152.276Z" fill="#313131"/>
<path d="M68.3104 177.655C67.683 177.655 67.0696 177.841 66.5479 178.19C66.0262 178.538 65.6195 179.034 65.3794 179.614C65.1393 180.193 65.0765 180.831 65.1989 181.447C65.3213 182.062 65.6235 182.627 66.0671 183.071C66.5108 183.514 67.076 183.817 67.6914 183.939C68.3068 184.061 68.9448 183.999 69.5245 183.759C70.1041 183.518 70.5996 183.112 70.9481 182.59C71.2967 182.068 71.4828 181.455 71.4828 180.828C71.4828 179.986 71.1486 179.179 70.5537 178.584C69.9587 177.989 69.1518 177.655 68.3104 177.655Z" fill="#313131"/>
<path d="M93.6897 0C93.0622 0 92.4488 0.186049 91.9271 0.534633C91.4054 0.883217 90.9988 1.37866 90.7586 1.95833C90.5185 2.538 90.4558 3.17588 90.5782 3.79126C90.7006 4.40663 91.0027 4.97189 91.4464 5.41555C91.8901 5.85921 92.4553 6.16136 93.0707 6.28377C93.6861 6.40617 94.324 6.34335 94.9037 6.10324C95.4834 5.86314 95.9788 5.4565 96.3274 4.93481C96.676 4.41312 96.8621 3.7998 96.8621 3.17236C96.8621 2.331 96.5279 1.52408 95.9329 0.929145C95.338 0.334212 94.5311 0 93.6897 0Z" fill="#313131"/>
<path d="M93.6897 25.3793C93.0622 25.3793 92.4488 25.5654 91.9271 25.914C91.4054 26.2626 90.9988 26.758 90.7586 27.3377C90.5185 27.9173 90.4558 28.5552 90.5782 29.1706C90.7006 29.786 91.0027 30.3512 91.4464 30.7949C91.8901 31.2385 92.4553 31.5407 93.0707 31.6631C93.6861 31.7855 94.324 31.7227 94.9037 31.4826C95.4834 31.2425 95.9788 30.8358 96.3274 30.3141C96.676 29.7925 96.8621 29.1791 96.8621 28.5517C96.8621 27.7103 96.5279 26.9034 95.9329 26.3085C95.338 25.7135 94.5311 25.3793 93.6897 25.3793Z" fill="#313131"/>
<path d="M93.6897 50.7586C93.0622 50.7586 92.4488 50.9447 91.9271 51.2933C91.4054 51.6419 90.9988 52.1373 90.7586 52.717C90.5185 53.2967 90.4558 53.9346 90.5782 54.55C90.7006 55.1654 91.0027 55.7307 91.4464 56.1744C91.8901 56.618 92.4553 56.9202 93.0707 57.0426C93.6861 57.165 94.324 57.1022 94.9037 56.8621C95.4834 56.622 95.9788 56.2153 96.3274 55.6936C96.676 55.1719 96.8621 54.5586 96.8621 53.9311C96.8621 53.0897 96.5279 52.2827 95.9329 51.6878C95.338 51.0928 94.5311 50.7586 93.6897 50.7586Z" fill="#313131"/>
<path d="M93.6897 76.1379C93.0622 76.1379 92.4488 76.324 91.9271 76.6726C91.4054 77.0212 90.9988 77.5166 90.7586 78.0963C90.5185 78.6759 90.4558 79.3138 90.5782 79.9292C90.7006 80.5446 91.0027 81.1098 91.4464 81.5535C91.8901 81.9972 92.4553 82.2993 93.0707 82.4217C93.6861 82.5441 94.324 82.4813 94.9037 82.2412C95.4834 82.0011 95.9788 81.5944 96.3274 81.0727C96.676 80.5511 96.8621 79.9377 96.8621 79.3103C96.8621 78.4689 96.5279 77.662 95.9329 77.0671C95.338 76.4722 94.5311 76.1379 93.6897 76.1379Z" fill="#313131"/>
<path d="M93.6897 101.517C93.0622 101.517 92.4488 101.703 91.9271 102.052C91.4054 102.4 90.9988 102.896 90.7586 103.476C90.5185 104.055 90.4558 104.693 90.5782 105.308C90.7006 105.924 91.0027 106.489 91.4464 106.933C91.8901 107.376 92.4553 107.679 93.0707 107.801C93.6861 107.923 94.324 107.861 94.9037 107.62C95.4834 107.38 95.9788 106.974 96.3274 106.452C96.676 105.93 96.8621 105.317 96.8621 104.69C96.8621 103.848 96.5279 103.041 95.9329 102.446C95.338 101.851 94.5311 101.517 93.6897 101.517Z" fill="#313131"/>
<path d="M93.6897 126.897C93.0622 126.897 92.4488 127.083 91.9271 127.431C91.4054 127.78 90.9988 128.275 90.7586 128.855C90.5185 129.435 90.4558 130.073 90.5782 130.688C90.7006 131.303 91.0027 131.869 91.4464 132.312C91.8901 132.756 92.4553 133.058 93.0707 133.181C93.6861 133.303 94.324 133.24 94.9037 133C95.4834 132.76 95.9788 132.353 96.3274 131.832C96.676 131.31 96.8621 130.696 96.8621 130.069C96.8621 129.228 96.5279 128.421 95.9329 127.826C95.338 127.231 94.5311 126.897 93.6897 126.897Z" fill="#313131"/>
<path d="M93.6897 152.276C93.0622 152.276 92.4488 152.462 91.9271 152.811C91.4054 153.159 90.9988 153.655 90.7586 154.234C90.5185 154.814 90.4558 155.452 90.5782 156.067C90.7006 156.683 91.0027 157.248 91.4464 157.691C91.8901 158.135 92.4553 158.437 93.0707 158.56C93.6861 158.682 94.324 158.619 94.9037 158.379C95.4834 158.139 95.9788 157.732 96.3274 157.211C96.676 156.689 96.8621 156.076 96.8621 155.448C96.8621 154.607 96.5279 153.8 95.9329 153.205C95.338 152.61 94.5311 152.276 93.6897 152.276Z" fill="#313131"/>
<path d="M93.6897 177.655C93.0622 177.655 92.4488 177.841 91.9271 178.19C91.4054 178.538 90.9988 179.034 90.7586 179.614C90.5185 180.193 90.4558 180.831 90.5782 181.447C90.7006 182.062 91.0027 182.627 91.4464 183.071C91.8901 183.514 92.4553 183.817 93.0707 183.939C93.6861 184.061 94.324 183.999 94.9037 183.759C95.4834 183.518 95.9788 183.112 96.3274 182.59C96.676 182.068 96.8621 181.455 96.8621 180.828C96.8621 179.986 96.5279 179.179 95.9329 178.584C95.338 177.989 94.5311 177.655 93.6897 177.655Z" fill="#313131"/>
<path d="M119.069 0C118.442 0 117.828 0.186049 117.306 0.534633C116.785 0.883217 116.378 1.37866 116.138 1.95833C115.898 2.538 115.835 3.17588 115.958 3.79126C116.08 4.40663 116.382 4.97189 116.826 5.41555C117.269 5.85921 117.835 6.16136 118.45 6.28377C119.065 6.40617 119.703 6.34335 120.283 6.10324C120.863 5.86314 121.358 5.4565 121.707 4.93481C122.055 4.41312 122.241 3.7998 122.241 3.17236C122.241 2.331 121.907 1.52408 121.312 0.929145C120.717 0.334212 119.91 0 119.069 0Z" fill="#313131"/>
<path d="M119.069 25.3793C118.442 25.3793 117.828 25.5654 117.306 25.914C116.785 26.2626 116.378 26.758 116.138 27.3377C115.898 27.9173 115.835 28.5552 115.958 29.1706C116.08 29.786 116.382 30.3512 116.826 30.7949C117.269 31.2385 117.835 31.5407 118.45 31.6631C119.065 31.7855 119.703 31.7227 120.283 31.4826C120.863 31.2425 121.358 30.8358 121.707 30.3141C122.055 29.7925 122.241 29.1791 122.241 28.5517C122.241 27.7103 121.907 26.9034 121.312 26.3085C120.717 25.7135 119.91 25.3793 119.069 25.3793Z" fill="#313131"/>
<path d="M119.069 50.7586C118.442 50.7586 117.828 50.9447 117.306 51.2933C116.785 51.6419 116.378 52.1373 116.138 52.717C115.898 53.2967 115.835 53.9346 115.958 54.55C116.08 55.1654 116.382 55.7307 116.826 56.1744C117.269 56.618 117.835 56.9202 118.45 57.0426C119.065 57.165 119.703 57.1022 120.283 56.8621C120.863 56.622 121.358 56.2153 121.707 55.6936C122.055 55.1719 122.241 54.5586 122.241 53.9311C122.241 53.0897 121.907 52.2827 121.312 51.6878C120.717 51.0928 119.91 50.7586 119.069 50.7586Z" fill="#313131"/>
<path d="M119.069 76.1379C118.442 76.1379 117.828 76.324 117.306 76.6726C116.785 77.0212 116.378 77.5166 116.138 78.0963C115.898 78.6759 115.835 79.3138 115.958 79.9292C116.08 80.5446 116.382 81.1098 116.826 81.5535C117.269 81.9972 117.835 82.2993 118.45 82.4217C119.065 82.5441 119.703 82.4813 120.283 82.2412C120.863 82.0011 121.358 81.5944 121.707 81.0727C122.055 80.5511 122.241 79.9377 122.241 79.3103C122.241 78.4689 121.907 77.662 121.312 77.0671C120.717 76.4722 119.91 76.1379 119.069 76.1379Z" fill="#313131"/>
<path d="M119.069 101.517C118.442 101.517 117.828 101.703 117.306 102.052C116.785 102.4 116.378 102.896 116.138 103.476C115.898 104.055 115.835 104.693 115.958 105.308C116.08 105.924 116.382 106.489 116.826 106.933C117.269 107.376 117.835 107.679 118.45 107.801C119.065 107.923 119.703 107.861 120.283 107.62C120.863 107.38 121.358 106.974 121.707 106.452C122.055 105.93 122.241 105.317 122.241 104.69C122.241 103.848 121.907 103.041 121.312 102.446C120.717 101.851 119.91 101.517 119.069 101.517Z" fill="#313131"/>
<path d="M119.069 126.897C118.442 126.897 117.828 127.083 117.306 127.431C116.785 127.78 116.378 128.275 116.138 128.855C115.898 129.435 115.835 130.073 115.958 130.688C116.08 131.303 116.382 131.869 116.826 132.312C117.269 132.756 117.835 133.058 118.45 133.181C119.065 133.303 119.703 133.24 120.283 133C120.863 132.76 121.358 132.353 121.707 131.832C122.055 131.31 122.241 130.696 122.241 130.069C122.241 129.228 121.907 128.421 121.312 127.826C120.717 127.231 119.91 126.897 119.069 126.897Z" fill="#313131"/>
<path d="M119.069 152.276C118.442 152.276 117.828 152.462 117.306 152.811C116.785 153.159 116.378 153.655 116.138 154.234C115.898 154.814 115.835 155.452 115.958 156.067C116.08 156.683 116.382 157.248 116.826 157.691C117.269 158.135 117.835 158.437 118.45 158.56C119.065 158.682 119.703 158.619 120.283 158.379C120.863 158.139 121.358 157.732 121.707 157.211C122.055 156.689 122.241 156.076 122.241 155.448C122.241 154.607 121.907 153.8 121.312 153.205C120.717 152.61 119.91 152.276 119.069 152.276Z" fill="#313131"/>
<path d="M119.069 177.655C118.442 177.655 117.828 177.841 117.306 178.19C116.785 178.538 116.378 179.034 116.138 179.614C115.898 180.193 115.835 180.831 115.958 181.447C116.08 182.062 116.382 182.627 116.826 183.071C117.269 183.514 117.835 183.817 118.45 183.939C119.065 184.061 119.703 183.999 120.283 183.759C120.863 183.518 121.358 183.112 121.707 182.59C122.055 182.068 122.241 181.455 122.241 180.828C122.241 179.986 121.907 179.179 121.312 178.584C120.717 177.989 119.91 177.655 119.069 177.655Z" fill="#313131"/>
<path d="M144.448 0C143.821 0 143.208 0.186049 142.686 0.534633C142.164 0.883217 141.757 1.37866 141.517 1.95833C141.277 2.538 141.214 3.17588 141.337 3.79126C141.459 4.40663 141.761 4.97189 142.205 5.41555C142.649 5.85921 143.214 6.16136 143.829 6.28377C144.445 6.40617 145.083 6.34335 145.662 6.10324C146.242 5.86314 146.737 5.4565 147.086 4.93481C147.435 4.41312 147.621 3.7998 147.621 3.17236C147.621 2.331 147.287 1.52408 146.692 0.929145C146.097 0.334212 145.29 0 144.448 0Z" fill="#313131"/>
<path d="M144.448 25.3793C143.821 25.3793 143.208 25.5654 142.686 25.914C142.164 26.2626 141.757 26.758 141.517 27.3377C141.277 27.9173 141.214 28.5552 141.337 29.1706C141.459 29.786 141.761 30.3512 142.205 30.7949C142.649 31.2385 143.214 31.5407 143.829 31.6631C144.445 31.7855 145.083 31.7227 145.662 31.4826C146.242 31.2425 146.737 30.8358 147.086 30.3141C147.435 29.7925 147.621 29.1791 147.621 28.5517C147.621 27.7103 147.287 26.9034 146.692 26.3085C146.097 25.7135 145.29 25.3793 144.448 25.3793Z" fill="#313131"/>
<path d="M144.448 50.7586C143.821 50.7586 143.208 50.9447 142.686 51.2933C142.164 51.6419 141.757 52.1373 141.517 52.717C141.277 53.2967 141.214 53.9346 141.337 54.55C141.459 55.1654 141.761 55.7307 142.205 56.1744C142.649 56.618 143.214 56.9202 143.829 57.0426C144.445 57.165 145.083 57.1022 145.662 56.8621C146.242 56.622 146.737 56.2153 147.086 55.6936C147.435 55.1719 147.621 54.5586 147.621 53.9311C147.621 53.0897 147.287 52.2827 146.692 51.6878C146.097 51.0928 145.29 50.7586 144.448 50.7586Z" fill="#313131"/>
<path d="M144.448 76.1379C143.821 76.1379 143.208 76.324 142.686 76.6726C142.164 77.0212 141.757 77.5166 141.517 78.0963C141.277 78.6759 141.214 79.3138 141.337 79.9292C141.459 80.5446 141.761 81.1098 142.205 81.5535C142.649 81.9972 143.214 82.2993 143.829 82.4217C144.445 82.5441 145.083 82.4813 145.662 82.2412C146.242 82.0011 146.737 81.5944 147.086 81.0727C147.435 80.5511 147.621 79.9377 147.621 79.3103C147.621 78.4689 147.287 77.662 146.692 77.0671C146.097 76.4722 145.29 76.1379 144.448 76.1379Z" fill="#313131"/>
<path d="M144.448 101.517C143.821 101.517 143.208 101.703 142.686 102.052C142.164 102.4 141.757 102.896 141.517 103.476C141.277 104.055 141.214 104.693 141.337 105.308C141.459 105.924 141.761 106.489 142.205 106.933C142.649 107.376 143.214 107.679 143.829 107.801C144.445 107.923 145.083 107.861 145.662 107.62C146.242 107.38 146.737 106.974 147.086 106.452C147.435 105.93 147.621 105.317 147.621 104.69C147.621 103.848 147.287 103.041 146.692 102.446C146.097 101.851 145.29 101.517 144.448 101.517Z" fill="#313131"/>
<path d="M144.448 126.897C143.821 126.897 143.208 127.083 142.686 127.431C142.164 127.78 141.757 128.275 141.517 128.855C141.277 129.435 141.214 130.073 141.337 130.688C141.459 131.303 141.761 131.869 142.205 132.312C142.649 132.756 143.214 133.058 143.829 133.181C144.445 133.303 145.083 133.24 145.662 133C146.242 132.76 146.737 132.353 147.086 131.832C147.435 131.31 147.621 130.696 147.621 130.069C147.621 129.228 147.287 128.421 146.692 127.826C146.097 127.231 145.29 126.897 144.448 126.897Z" fill="#313131"/>
<path d="M144.448 152.276C143.821 152.276 143.208 152.462 142.686 152.811C142.164 153.159 141.757 153.655 141.517 154.234C141.277 154.814 141.214 155.452 141.337 156.067C141.459 156.683 141.761 157.248 142.205 157.691C142.649 158.135 143.214 158.437 143.829 158.56C144.445 158.682 145.083 158.619 145.662 158.379C146.242 158.139 146.737 157.732 147.086 157.211C147.435 156.689 147.621 156.076 147.621 155.448C147.621 154.607 147.287 153.8 146.692 153.205C146.097 152.61 145.29 152.276 144.448 152.276Z" fill="#313131"/>
<path d="M144.448 177.655C143.821 177.655 143.208 177.841 142.686 178.19C142.164 178.538 141.757 179.034 141.517 179.614C141.277 180.193 141.214 180.831 141.337 181.447C141.459 182.062 141.761 182.627 142.205 183.071C142.649 183.514 143.214 183.817 143.829 183.939C144.445 184.061 145.083 183.999 145.662 183.759C146.242 183.518 146.737 183.112 147.086 182.59C147.435 182.068 147.621 181.455 147.621 180.828C147.621 179.986 147.287 179.179 146.692 178.584C146.097 177.989 145.29 177.655 144.448 177.655Z" fill="#313131"/>
</svg>
